P3
50 85
255
0
0
0
0
0
0
0
0
0
0
0
0
0
0
0
0
0
0
0
0
0
0
0
0
0
0
0
0
0
0
0
0
0
0
0
0
0
0
0
0
0
0
0
0
0
0
0
0
0
0
0
0
0
0
0
0
0
0
0
0
0
0
0
0
0
0
0
0
0
217
45
23
0
0
0
0
0
0
0
0
0
0
0
0
0
0
0
0
0
0
0
0
0
0
0
0
0
0
0
0
0
0
0
0
0
0
0
0
0
0
0
0
0
0
0
0
0
0
0
0
0
0
0
0
0
0
0
0
0
0
0
0
0
0
0
0
0
0
0
0
0
0
0
0
0
0
0
0
0
0
0
0
0
0
0
0
0
0
0
0
0
0
0
0
0
0
0
0
0
0
0
0
0
0
0
0
0
0
0
0
0
0
0
0
0
0
0
0
0
0
0
0
0
0
0
0
0
0
0
0
0
0
0
0
0
0
0
0
0
0
0
0
0
0
0
0
0
0
0
217
45
23
0
0
0
0
0
0
0
0
0
0
0
0
0
0
0
0
0
0
0
0
0
0
0
0
0
0
0
0
0
0
0
0
0
0
0
0
0
0
0
0
0
0
0
0
0
0
0
0
0
0
0
0
0
0
0
0
0
0
0
0
0
0
0
0
0
0
0
0
0
0
0
0
0
0
0
0
0
0
0
0
0
0
0
0
0
0
0
0
0
0
0
0
0
0
0
0
0
0
0
0
0
0
0
0
0
0
0
0
0
0
0
0
0
0
0
0
0
0
0
0
0
0
0
0
0
0
0
0
0
0
0
0
0
0
0
0
0
0
0
0
0
0
0
0
0
0
0
217
45
23
0
0
0
0
0
0
0
0
0
0
0
0
0
0
0
0
0
0
0
0
0
0
0
0
0
0
0
0
0
0
0
0
0
0
0
0
0
0
0
0
0
0
0
0
0
0
0
0
0
0
0
0
0
0
0
0
0
0
0
0
0
0
0
0
0
0
0
0
0
0
0
0
0
0
0
0
0
0
0
0
0
0
0
0
0
0
0
0
0
0
0
0
0
0
0
0
0
0
0
0
0
0
0
0
0
0
0
0
0
0
0
0
0
0
0
0
0
0
0
0
0
0
0
0
0
0
0
0
0
0
0
0
0
0
0
0
0
0
217
45
23
0
0
0
0
0
0
217
45
23
0
0
0
0
0
0
0
0
0
0
0
0
0
0
0
0
0
0
0
0
0
0
0
0
0
0
0
0
0
0
0
0
0
0
0
0
0
0
0
0
0
0
0
0
0
0
0
0
0
0
0
0
0
0
0
0
0
0
0
0
0
0
0
0
0
0
0
0
0
0
0
0
0
0
0
0
0
0
0
0
0
0
0
0
0
0
0
0
0
0
0
0
0
0
0
0
0
0
0
0
0
0
0
0
0
0
0
0
0
0
0
0
0
0
0
0
0
0
0
0
0
0
0
0
0
0
0
0
0
0
0
0
0
0
0
0
0
0
217
45
23
0
0
0
0
0
0
217
45
23
0
0
0
0
0
0
0
0
0
217
45
23
0
0
0
0
0
0
0
0
0
0
0
0
0
0
0
0
0
0
0
0
0
0
0
0
0
0
0
0
0
0
0
0
0
0
0
0
0
0
0
0
0
0
0
0
0
0
0
0
0
0
0
0
0
0
0
0
0
0
0
0
0
0
0
0
0
0
0
0
0
0
0
0
0
0
0
0
0
0
0
0
0
0
0
0
0
0
0
0
0
0
0
0
0
0
0
0
0
0
0
0
0
0
0
0
0
0
0
0
0
0
0
0
0
0
0
0
0
0
0
0
0
0
0
0
0
0
217
45
23
217
45
23
0
0
0
217
45
23
0
0
0
0
0
0
0
0
0
217
45
23
0
0
0
0
0
0
0
0
0
0
0
0
0
0
0
0
0
0
217
45
23
0
0
0
0
0
0
0
0
0
0
0
0
0
0
0
0
0
0
0
0
0
0
0
0
0
0
0
0
0
0
0
0
0
0
0
0
0
0
0
0
0
0
0
0
0
0
0
0
0
0
0
0
0
0
0
0
0
0
0
0
0
0
0
0
0
0
0
0
0
0
0
0
0
0
0
0
0
0
0
0
0
0
0
0
0
0
0
0
0
0
0
0
0
0
0
0
0
0
0
0
0
0
0
0
0
217
45
23
217
45
23
0
0
0
217
45
23
0
0
0
0
0
0
0
0
0
217
45
23
0
0
0
0
0
0
0
0
0
0
0
0
0
0
0
0
0
0
217
45
23
0
0
0
0
0
0
0
0
0
0
0
0
0
0
0
0
0
0
0
0
0
0
0
0
0
0
0
0
0
0
0
0
0
0
0
0
0
0
0
0
0
0
0
0
0
0
0
0
0
0
0
0
0
0
0
0
0
0
0
0
0
0
0
0
0
0
0
0
0
0
0
0
0
0
0
0
0
0
0
0
0
0
0
0
0
0
0
0
0
0
0
0
0
0
0
0
0
0
0
0
0
0
0
0
0
217
45
23
217
45
23
0
0
0
217
45
23
0
0
0
0
0
0
0
0
0
217
45
23
0
0
0
0
0
0
0
0
0
0
0
0
0
0
0
0
0
0
217
45
23
0
0
0
0
0
0
0
0
0
0
0
0
0
0
0
0
0
0
0
0
0
0
0
0
0
0
0
0
0
0
0
0
0
0
0
0
0
0
0
0
0
0
0
0
0
0
0
0
0
0
0
0
0
0
0
0
0
0
0
0
0
0
0
0
0
0
0
0
0
0
0
0
0
0
0
0
0
0
0
0
0
0
0
0
0
0
0
0
0
0
0
0
0
0
0
0
0
0
0
0
0
0
0
0
0
217
45
23
217
45
23
0
0
0
217
45
23
217
45
23
0
0
0
0
0
0
217
45
23
217
45
23
0
0
0
0
0
0
0
0
0
0
0
0
0
0
0
217
45
23
0
0
0
0
0
0
0
0
0
0
0
0
0
0
0
0
0
0
0
0
0
0
0
0
0
0
0
0
0
0
0
0
0
0
0
0
0
0
0
0
0
0
0
0
0
0
0
0
0
0
0
0
0
0
0
0
0
0
0
0
0
0
0
0
0
0
0
0
0
0
0
0
0
0
0
0
0
0
0
0
0
0
0
0
0
0
0
0
0
0
0
0
0
0
0
0
0
0
0
0
0
0
0
0
0
217
45
23
217
45
23
0
0
0
217
45
23
217
45
23
0
0
0
0
0
0
217
45
23
217
45
23
0
0
0
0
0
0
0
0
0
0
0
0
0
0
0
217
45
23
0
0
0
0
0
0
0
0
0
0
0
0
0
0
0
0
0
0
0
0
0
0
0
0
0
0
0
0
0
0
0
0
0
0
0
0
0
0
0
0
0
0
0
0
0
0
0
0
0
0
0
0
0
0
0
0
0
0
0
0
0
0
0
0
0
0
0
0
0
0
0
0
0
0
0
0
0
0
0
0
0
0
0
0
0
0
0
0
0
0
0
0
0
0
0
0
0
0
0
0
0
0
0
0
0
217
45
23
217
45
23
0
0
0
217
45
23
217
45
23
0
0
0
0
0
0
217
45
23
217
45
23
0
0
0
0
0
0
0
0
0
217
45
23
0
0
0
217
45
23
0
0
0
0
0
0
0
0
0
0
0
0
0
0
0
0
0
0
0
0
0
0
0
0
0
0
0
0
0
0
0
0
0
0
0
0
0
0
0
0
0
0
0
0
0
0
0
0
0
0
0
0
0
0
0
0
0
0
0
0
0
0
0
0
0
0
0
0
0
0
0
0
0
0
0
0
0
0
0
0
0
0
0
0
0
0
0
0
0
0
0
0
0
0
0
0
0
0
0
217
45
23
0
0
0
217
45
23
217
45
23
217
45
23
217
45
23
217
45
23
0
0
0
0
0
0
217
45
23
217
45
23
0
0
0
0
0
0
0
0
0
217
45
23
0
0
0
217
45
23
0
0
0
0
0
0
0
0
0
0
0
0
0
0
0
0
0
0
0
0
0
0
0
0
0
0
0
0
0
0
0
0
0
0
0
0
0
0
0
0
0
0
0
0
0
0
0
0
0
0
0
0
0
0
0
0
0
0
0
0
0
0
0
0
0
0
0
0
0
0
0
0
0
0
0
0
0
0
0
0
0
0
0
0
0
0
0
0
0
0
0
0
0
0
0
0
0
0
0
217
45
23
0
0
0
217
45
23
217
45
23
217
45
23
217
45
23
217
45
23
0
0
0
0
0
0
217
45
23
217
45
23
0
0
0
0
0
0
0
0
0
217
45
23
0
0
0
217
45
23
0
0
0
0
0
0
0
0
0
0
0
0
0
0
0
0
0
0
0
0
0
0
0
0
0
0
0
0
0
0
0
0
0
0
0
0
0
0
0
0
0
0
0
0
0
0
0
0
0
0
0
0
0
0
0
0
0
0
0
0
0
0
0
0
0
0
0
0
0
0
0
0
0
0
0
0
0
0
0
0
0
0
0
0
0
0
0
0
0
0
0
0
0
0
0
0
0
0
0
217
45
23
0
0
0
217
45
23
217
45
23
255
118
10
217
45
23
217
45
23
0
0
0
0
0
0
217
45
23
217
45
23
0
0
0
0
0
0
0
0
0
217
45
23
217
45
23
217
45
23
0
0
0
0
0
0
0
0
0
0
0
0
0
0
0
0
0
0
0
0
0
0
0
0
0
0
0
0
0
0
0
0
0
0
0
0
0
0
0
0
0
0
0
0
0
0
0
0
0
0
0
0
0
0
0
0
0
0
0
0
0
0
0
0
0
0
0
0
0
0
0
0
0
0
0
0
0
0
0
0
0
0
0
0
0
0
0
0
0
0
0
0
0
0
0
0
0
0
0
217
45
23
0
0
0
217
45
23
217
45
23
255
118
10
255
118
10
217
45
23
0
0
0
0
0
0
217
45
23
217
45
23
217
45
23
0
0
0
0
0
0
217
45
23
217
45
23
217
45
23
0
0
0
0
0
0
0
0
0
0
0
0
0
0
0
0
0
0
0
0
0
0
0
0
0
0
0
0
0
0
0
0
0
0
0
0
0
0
0
0
0
0
0
0
0
0
0
0
0
0
0
0
0
0
0
0
0
0
0
0
0
0
0
0
0
0
0
0
0
0
0
0
0
0
0
0
0
0
0
0
0
0
0
0
0
0
0
0
0
0
0
0
0
0
0
0
0
0
0
217
45
23
217
45
23
217
45
23
217
45
23
255
118
10
255
118
10
217
45
23
0
0
0
0
0
0
217
45
23
217
45
23
217
45
23
0
0
0
0
0
0
217
45
23
217
45
23
217
45
23
0
0
0
0
0
0
0
0
0
0
0
0
0
0
0
0
0
0
0
0
0
0
0
0
0
0
0
0
0
0
0
0
0
0
0
0
0
0
0
0
0
0
0
0
0
0
0
0
0
0
0
0
0
0
0
0
0
0
0
0
0
0
0
0
0
0
0
0
0
0
0
0
0
0
0
0
0
0
0
0
0
0
0
0
0
0
0
0
0
0
0
0
0
0
0
0
217
45
23
217
45
23
217
45
23
217
45
23
217
45
23
255
118
10
255
118
10
217
45
23
217
45
23
0
0
0
217
45
23
255
118
10
217
45
23
0
0
0
0
0
0
217
45
23
255
118
10
217
45
23
0
0
0
0
0
0
0
0
0
0
0
0
0
0
0
0
0
0
0
0
0
0
0
0
0
0
0
0
0
0
0
0
0
0
0
0
0
0
0
0
0
0
0
0
0
0
0
0
0
0
0
0
0
0
0
0
0
0
0
0
0
0
0
0
0
0
0
0
0
0
0
0
0
0
0
0
0
0
0
0
0
0
0
0
0
0
0
0
0
0
0
0
0
0
0
0
217
45
23
217
45
23
217
45
23
217
45
23
217
45
23
255
118
10
217
45
23
217
45
23
217
45
23
0
0
0
217
45
23
255
118
10
217
45
23
0
0
0
0
0
0
217
45
23
217
45
23
217
45
23
0
0
0
0
0
0
0
0
0
0
0
0
0
0
0
0
0
0
0
0
0
0
0
0
0
0
0
0
0
0
0
0
0
0
0
0
0
0
0
0
0
0
0
0
0
0
0
0
0
0
0
0
0
0
0
0
0
0
0
0
0
0
0
0
0
0
0
0
0
0
0
0
0
0
0
0
0
0
0
0
0
0
0
0
0
0
0
0
0
0
0
0
0
0
0
0
217
45
23
217
45
23
217
45
23
217
45
23
217
45
23
255
118
10
217
45
23
217
45
23
217
45
23
0
0
0
217
45
23
255
118
10
217
45
23
0
0
0
0
0
0
217
45
23
217
45
23
217
45
23
0
0
0
0
0
0
0
0
0
0
0
0
0
0
0
0
0
0
0
0
0
0
0
0
0
0
0
0
0
0
0
0
0
0
0
0
0
0
0
0
0
0
0
0
0
0
0
0
0
0
0
0
0
0
0
0
0
0
0
0
0
0
0
0
0
0
0
0
0
0
0
0
0
0
0
0
0
0
0
0
0
0
0
0
0
0
0
0
0
0
217
45
23
0
0
0
217
45
23
217
45
23
217
45
23
255
118
10
217
45
23
217
45
23
217
45
23
217
45
23
217
45
23
0
0
0
217
45
23
217
45
23
217
45
23
0
0
0
0
0
0
217
45
23
255
118
10
217
45
23
0
0
0
0
0
0
217
45
23
0
0
0
0
0
0
0
0
0
0
0
0
0
0
0
0
0
0
0
0
0
0
0
0
0
0
0
0
0
0
0
0
0
0
0
0
0
0
0
0
0
0
0
0
0
0
0
0
0
0
0
0
0
0
0
0
0
0
0
0
0
0
0
0
0
0
0
0
0
0
0
0
0
0
0
0
0
0
0
0
0
217
45
23
0
0
0
217
45
23
217
45
23
217
45
23
255
118
10
217
45
23
217
45
23
217
45
23
217
45
23
217
45
23
0
0
0
217
45
23
217
45
23
217
45
23
0
0
0
217
45
23
217
45
23
255
118
10
217
45
23
0
0
0
0
0
0
217
45
23
0
0
0
0
0
0
0
0
0
0
0
0
0
0
0
0
0
0
0
0
0
0
0
0
0
0
0
0
0
0
0
0
0
0
0
0
0
0
0
0
0
0
0
0
0
0
0
0
0
0
0
0
0
0
0
0
0
0
0
0
0
0
0
0
0
0
0
0
0
0
0
0
0
0
0
0
0
0
0
0
0
217
45
23
0
0
0
217
45
23
217
45
23
217
45
23
255
118
10
217
45
23
217
45
23
217
45
23
217
45
23
217
45
23
217
45
23
217
45
23
255
118
10
217
45
23
0
0
0
217
45
23
217
45
23
255
118
10
217
45
23
0
0
0
0
0
0
217
45
23
0
0
0
0
0
0
0
0
0
0
0
0
0
0
0
0
0
0
0
0
0
0
0
0
0
0
0
0
0
0
0
0
0
0
0
0
0
0
0
0
0
0
0
0
0
0
0
0
0
0
0
0
0
0
0
0
0
0
0
0
0
0
0
0
0
0
0
0
0
0
0
0
0
0
0
0
0
0
217
45
23
217
45
23
0
0
0
217
45
23
217
45
23
217
45
23
217
45
23
217
45
23
255
118
10
217
45
23
217
45
23
217
45
23
217
45
23
217
45
23
255
118
10
217
45
23
0
0
0
217
45
23
217
45
23
255
118
10
217
45
23
0
0
0
0
0
0
217
45
23
0
0
0
0
0
0
0
0
0
0
0
0
0
0
0
0
0
0
0
0
0
0
0
0
0
0
0
0
0
0
0
0
0
0
0
0
0
0
0
0
0
0
0
0
0
0
0
0
0
0
0
0
0
0
0
0
0
0
0
0
0
0
0
0
0
0
0
0
0
0
0
0
0
0
0
0
0
0
217
45
23
217
45
23
0
0
0
217
45
23
217
45
23
217
45
23
217
45
23
217
45
23
255
118
10
217
45
23
217
45
23
217
45
23
217
45
23
255
118
10
255
118
10
217
45
23
217
45
23
217
45
23
217
45
23
255
118
10
217
45
23
0
0
0
217
45
23
217
45
23
0
0
0
0
0
0
0
0
0
0
0
0
0
0
0
0
0
0
0
0
0
0
0
0
0
0
0
0
0
0
0
0
0
0
0
0
0
0
0
0
0
0
0
0
0
0
0
0
0
0
0
0
0
0
0
0
0
0
0
0
0
0
0
0
0
0
0
0
0
0
0
0
0
0
0
0
0
0
217
45
23
217
45
23
217
45
23
217
45
23
217
45
23
217
45
23
217
45
23
217
45
23
255
118
10
217
45
23
217
45
23
217
45
23
217
45
23
255
118
10
255
118
10
217
45
23
217
45
23
217
45
23
217
45
23
255
118
10
217
45
23
0
0
0
217
45
23
217
45
23
0
0
0
0
0
0
0
0
0
0
0
0
0
0
0
0
0
0
0
0
0
0
0
0
0
0
0
0
0
0
0
0
0
0
0
0
0
0
0
0
0
0
0
0
0
0
0
0
0
0
0
0
0
0
0
0
0
0
0
0
0
0
0
0
0
0
0
0
0
0
0
0
0
0
0
0
0
0
217
45
23
217
45
23
217
45
23
217
45
23
217
45
23
217
45
23
217
45
23
217
45
23
255
118
10
255
118
10
217
45
23
217
45
23
217
45
23
255
118
10
255
118
10
217
45
23
217
45
23
217
45
23
255
118
10
255
118
10
217
45
23
0
0
0
217
45
23
217
45
23
0
0
0
0
0
0
0
0
0
0
0
0
0
0
0
0
0
0
0
0
0
0
0
0
0
0
0
0
0
0
0
0
0
0
0
0
0
0
0
0
0
0
0
0
0
0
0
0
0
0
0
0
0
0
0
0
0
0
0
0
0
0
0
0
0
0
0
0
0
0
0
0
0
0
0
0
0
0
217
45
23
217
45
23
217
45
23
217
45
23
217
45
23
217
45
23
217
45
23
217
45
23
255
118
10
255
118
10
217
45
23
217
45
23
217
45
23
255
118
10
255
118
10
217
45
23
217
45
23
217
45
23
255
118
10
255
118
10
217
45
23
0
0
0
217
45
23
217
45
23
0
0
0
0
0
0
0
0
0
0
0
0
0
0
0
0
0
0
0
0
0
0
0
0
0
0
0
0
0
0
0
0
0
0
0
0
0
0
0
0
0
0
0
0
0
0
0
0
0
0
0
0
0
0
0
0
0
0
0
0
0
0
0
0
0
0
0
0
0
0
0
0
0
0
0
0
0
0
217
45
23
217
45
23
255
118
10
217
45
23
217
45
23
255
118
10
217
45
23
217
45
23
254
235
94
255
118
10
217
45
23
217
45
23
217
45
23
255
118
10
255
118
10
255
118
10
217
45
23
255
118
10
255
118
10
255
118
10
217
45
23
0
0
0
217
45
23
217
45
23
0
0
0
0
0
0
0
0
0
0
0
0
0
0
0
0
0
0
0
0
0
0
0
0
0
0
0
0
0
0
0
0
0
0
0
0
0
0
0
0
0
0
0
0
0
0
0
0
0
0
0
0
0
0
0
0
0
0
0
0
0
0
0
0
0
0
0
0
0
0
0
0
0
0
0
0
0
0
217
45
23
217
45
23
255
118
10
217
45
23
217
45
23
255
118
10
217
45
23
217
45
23
255
118
10
255
118
10
217
45
23
217
45
23
255
118
10
255
118
10
255
118
10
255
118
10
217
45
23
255
118
10
255
118
10
255
118
10
217
45
23
217
45
23
217
45
23
217
45
23
0
0
0
0
0
0
0
0
0
0
0
0
0
0
0
0
0
0
0
0
0
0
0
0
0
0
0
0
0
0
0
0
0
0
0
0
0
0
0
0
0
0
0
0
0
0
0
0
0
0
0
0
0
0
0
0
0
0
0
0
0
0
0
0
0
0
0
0
0
0
0
0
0
0
0
0
0
0
217
45
23
217
45
23
255
118
10
217
45
23
217
45
23
255
118
10
217
45
23
217
45
23
255
118
10
255
118
10
217
45
23
217
45
23
255
118
10
255
118
10
255
118
10
255
118
10
255
118
10
255
118
10
254
235
94
255
118
10
217
45
23
217
45
23
217
45
23
217
45
23
0
0
0
0
0
0
0
0
0
0
0
0
0
0
0
0
0
0
0
0
0
0
0
0
0
0
0
0
0
0
0
0
0
0
0
0
0
0
0
0
0
0
0
0
0
0
0
0
0
0
0
0
0
0
0
0
0
0
0
0
0
0
0
0
0
0
0
0
0
0
0
0
217
45
23
0
0
0
217
45
23
217
45
23
255
118
10
217
45
23
217
45
23
255
118
10
217
45
23
217
45
23
254
235
94
255
118
10
217
45
23
217
45
23
255
118
10
254
235
94
255
118
10
255
118
10
217
45
23
255
118
10
255
118
10
255
118
10
217
45
23
217
45
23
255
118
10
217
45
23
0
0
0
0
0
0
0
0
0
0
0
0
0
0
0
0
0
0
0
0
0
0
0
0
0
0
0
0
0
0
0
0
0
0
0
0
0
0
0
0
0
0
0
0
0
0
0
0
0
0
0
0
0
0
0
0
0
0
0
0
0
0
0
0
0
0
0
0
0
0
0
0
217
45
23
217
45
23
217
45
23
217
45
23
255
118
10
255
118
10
217
45
23
217
45
23
217
45
23
217
45
23
254
235
94
255
118
10
217
45
23
217
45
23
255
118
10
254
235
94
255
118
10
255
118
10
255
118
10
255
118
10
255
118
10
255
118
10
217
45
23
217
45
23
255
118
10
217
45
23
0
0
0
0
0
0
0
0
0
0
0
0
0
0
0
0
0
0
0
0
0
0
0
0
0
0
0
0
0
0
0
0
0
0
0
0
0
0
0
0
0
0
0
0
0
0
0
0
0
0
0
0
0
0
0
0
0
0
0
0
0
0
0
0
0
0
0
0
0
0
0
0
217
45
23
217
45
23
217
45
23
217
45
23
254
235
94
255
118
10
217
45
23
217
45
23
217
45
23
217
45
23
254
235
94
255
118
10
255
118
10
217
45
23
255
118
10
254
235
94
254
235
94
255
118
10
255
118
10
255
118
10
254
235
94
255
118
10
255
118
10
217
45
23
255
118
10
217
45
23
0
0
0
0
0
0
0
0
0
0
0
0
0
0
0
0
0
0
0
0
0
0
0
0
0
0
0
0
0
0
0
0
0
0
0
0
0
0
0
0
0
0
0
0
0
0
0
0
0
0
0
0
0
0
0
0
0
0
0
0
0
0
0
0
0
0
0
0
0
0
0
0
217
45
23
255
118
10
217
45
23
217
45
23
255
118
10
255
118
10
217
45
23
217
45
23
217
45
23
255
118
10
255
118
10
255
118
10
255
118
10
217
45
23
255
118
10
254
235
94
254
235
94
255
118
10
255
118
10
255
118
10
254
235
94
254
235
94
255
118
10
217
45
23
217
45
23
217
45
23
0
0
0
0
0
0
0
0
0
0
0
0
0
0
0
0
0
0
0
0
0
0
0
0
0
0
0
0
0
0
0
0
0
0
0
0
0
0
0
0
0
0
0
0
0
0
0
0
0
0
0
0
0
0
0
0
0
0
0
0
0
0
0
0
0
0
0
0
0
0
0
0
217
45
23
255
118
10
217
45
23
255
118
10
255
118
10
255
118
10
217
45
23
255
118
10
217
45
23
255
118
10
255
118
10
255
118
10
255
118
10
217
45
23
255
118
10
254
235
94
254
235
94
255
118
10
255
118
10
254
235
94
254
235
94
254
235
94
255
118
10
217
45
23
217
45
23
217
45
23
0
0
0
217
45
23
0
0
0
0
0
0
0
0
0
0
0
0
0
0
0
0
0
0
0
0
0
0
0
0
0
0
0
0
0
0
0
0
0
0
0
0
0
0
0
0
0
0
0
0
0
0
0
0
0
0
0
0
0
0
0
0
0
0
0
0
0
0
0
0
0
0
217
45
23
255
118
10
217
45
23
255
118
10
255
118
10
255
118
10
217
45
23
255
118
10
217
45
23
255
118
10
254
235
94
255
118
10
255
118
10
255
118
10
255
118
10
254
235
94
254
235
94
255
118
10
255
118
10
254
235
94
254
235
94
254
235
94
255
118
10
255
118
10
217
45
23
217
45
23
0
0
0
217
45
23
0
0
0
0
0
0
0
0
0
0
0
0
0
0
0
0
0
0
0
0
0
0
0
0
0
0
0
0
0
0
0
0
0
0
0
0
0
0
0
0
0
0
0
0
0
0
0
0
0
0
0
0
0
0
0
0
0
0
0
0
0
0
0
0
0
0
217
45
23
217
45
23
217
45
23
255
118
10
254
235
94
255
118
10
217
45
23
255
118
10
255
118
10
255
118
10
254
235
94
255
118
10
255
118
10
255
118
10
255
118
10
254
235
94
254
235
94
255
118
10
255
118
10
254
235
94
254
235
94
254
235
94
255
118
10
255
118
10
217
45
23
217
45
23
217
45
23
217
45
23
0
0
0
0
0
0
0
0
0
0
0
0
0
0
0
0
0
0
0
0
0
0
0
0
0
0
0
0
0
0
0
0
0
0
0
0
0
0
0
0
0
0
0
0
0
0
0
0
0
0
0
0
0
0
0
0
0
0
0
0
0
0
0
0
0
0
217
45
23
217
45
23
217
45
23
255
118
10
254
235
94
255
118
10
255
118
10
255
118
10
255
118
10
255
118
10
254
235
94
255
118
10
255
118
10
255
118
10
255
118
10
254
235
94
254
235
94
255
118
10
255
118
10
254
235
94
254
235
94
254
235
94
255
118
10
255
118
10
217
45
23
217
45
23
217
45
23
217
45
23
0
0
0
0
0
0
0
0
0
0
0
0
0
0
0
0
0
0
0
0
0
0
0
0
0
0
0
0
0
0
0
0
0
0
0
0
0
0
0
0
0
0
0
0
0
0
0
0
0
0
0
0
0
0
0
0
0
0
0
0
217
45
23
0
0
0
217
45
23
217
45
23
255
118
10
254
235
94
254
235
94
255
118
10
255
118
10
255
118
10
254
235
94
254
235
94
254
235
94
254
235
94
255
118
10
255
118
10
255
118
10
254
235
94
254
235
94
255
118
10
255
118
10
254
235
94
254
235
94
254
235
94
255
118
10
255
118
10
255
118
10
217
45
23
217
45
23
217
45
23
0
0
0
0
0
0
0
0
0
0
0
0
0
0
0
0
0
0
0
0
0
0
0
0
0
0
0
0
0
0
0
0
0
0
0
0
0
0
0
0
0
0
0
0
0
0
0
0
0
0
0
0
0
0
0
0
0
0
0
0
217
45
23
217
45
23
217
45
23
217
45
23
255
118
10
254
235
94
254
235
94
255
118
10
255
118
10
255
118
10
254
235
94
254
235
94
254
235
94
254
235
94
255
118
10
255
118
10
255
118
10
254
235
94
254
235
94
255
118
10
255
118
10
254
235
94
254
235
94
254
235
94
255
118
10
254
235
94
255
118
10
217
45
23
217
45
23
217
45
23
0
0
0
0
0
0
0
0
0
0
0
0
0
0
0
0
0
0
0
0
0
0
0
0
0
0
0
0
0
0
0
0
0
0
0
0
0
0
0
0
0
0
0
0
0
0
0
0
0
0
0
0
0
0
0
0
0
0
0
0
217
45
23
217
45
23
217
45
23
255
118
10
255
118
10
255
118
10
254
235
94
255
118
10
254
235
94
254
235
94
255
118
10
254
235
94
254
235
94
254
235
94
254
235
94
255
118
10
255
118
10
254
235
94
254
235
94
255
118
10
255
118
10
254
235
94
254
235
94
254
235
94
255
118
10
255
118
10
255
118
10
255
118
10
217
45
23
217
45
23
0
0
0
0
0
0
0
0
0
0
0
0
0
0
0
0
0
0
0
0
0
0
0
0
0
0
0
0
0
0
0
0
0
0
0
0
0
0
0
0
0
0
0
0
0
0
0
0
0
0
0
0
0
0
0
0
0
0
0
0
217
45
23
217
45
23
217
45
23
255
118
10
255
118
10
255
118
10
255
118
10
255
118
10
254
235
94
254
235
94
254
235
94
254
235
94
254
235
94
254
235
94
254
235
94
254
235
94
255
118
10
255
118
10
254
235
94
255
118
10
254
235
94
254
235
94
254
235
94
254
235
94
254
235
94
255
118
10
255
118
10
255
118
10
217
45
23
217
45
23
0
0
0
0
0
0
0
0
0
0
0
0
0
0
0
0
0
0
0
0
0
0
0
0
0
0
0
0
0
0
0
0
0
0
0
0
0
0
0
0
0
0
0
0
0
0
0
0
0
0
0
0
0
0
0
0
0
0
0
0
217
45
23
217
45
23
255
118
10
148
17
22
148
17
22
148
17
22
148
17
22
148
17
22
148
17
22
148
17
22
148
17
22
148
17
22
148
17
22
148
17
22
254
235
94
254
235
94
254
235
94
255
118
10
254
235
94
255
118
10
254
235
94
148
17
22
148
17
22
148
17
22
148
17
22
148
17
22
148
17
22
255
118
10
217
45
23
217
45
23
0
0
0
0
0
0
0
0
0
0
0
0
0
0
0
0
0
0
0
0
0
0
0
0
0
0
0
0
0
0
0
0
0
0
0
0
0
0
0
0
0
0
0
0
0
0
0
0
0
0
0
0
0
0
0
0
0
0
0
0
217
45
23
217
45
23
148
17
22
255
118
10
255
118
10
255
118
10
255
118
10
255
118
10
255
118
10
255
118
10
255
118
10
255
118
10
255
118
10
255
118
10
148
17
22
148
17
22
254
235
94
254
235
94
254
235
94
254
235
94
148
17
22
255
118
10
255
118
10
255
118
10
255
118
10
255
118
10
255
118
10
148
17
22
217
45
23
217
45
23
0
0
0
0
0
0
0
0
0
0
0
0
0
0
0
0
0
0
0
0
0
0
0
0
0
0
0
0
0
0
0
0
0
0
0
0
0
0
0
0
0
0
0
0
0
0
0
0
0
0
0
0
0
0
0
0
0
0
0
0
217
45
23
148
17
22
217
45
23
255
118
10
255
118
10
255
118
10
255
118
10
255
118
10
255
118
10
255
118
10
255
118
10
255
118
10
255
118
10
255
118
10
255
118
10
255
118
10
148
17
22
254
235
94
254
235
94
148
17
22
255
118
10
255
118
10
255
118
10
255
118
10
255
118
10
255
118
10
255
118
10
255
118
10
148
17
22
217
45
23
217
45
23
0
0
0
0
0
0
0
0
0
0
0
0
0
0
0
0
0
0
0
0
0
0
0
0
0
0
0
0
0
0
0
0
0
0
0
0
0
0
0
0
0
0
0
0
0
0
0
0
0
0
0
0
0
0
0
0
0
217
45
23
148
17
22
217
45
23
217
45
23
217
45
23
217
45
23
74
0
5
74
0
5
74
0
5
74
0
5
74
0
5
74
0
5
74
0
5
255
118
10
255
118
10
255
118
10
255
118
10
148
17
22
148
17
22
255
118
10
255
118
10
255
118
10
255
118
10
74
0
5
74
0
5
74
0
5
74
0
5
255
118
10
255
118
10
148
17
22
217
45
23
0
0
0
0
0
0
0
0
0
0
0
0
0
0
0
0
0
0
0
0
0
0
0
0
0
0
0
0
0
0
0
0
0
0
0
0
0
0
0
0
0
0
0
0
0
0
0
0
0
0
0
0
0
0
0
0
0
217
45
23
148
17
22
217
45
23
217
45
23
217
45
23
217
45
23
217
45
23
255
255
255
255
255
255
255
255
255
255
255
255
255
255
255
74
0
5
74
0
5
255
118
10
255
118
10
255
118
10
255
118
10
255
118
10
255
118
10
255
118
10
255
118
10
74
0
5
74
0
5
255
255
255
255
255
255
255
255
255
74
0
5
255
118
10
148
17
22
217
45
23
0
0
0
0
0
0
0
0
0
0
0
0
0
0
0
0
0
0
0
0
0
0
0
0
0
0
0
0
0
0
0
0
0
0
0
0
0
0
0
0
0
0
0
0
0
0
0
0
0
0
0
0
0
0
217
45
23
217
45
23
148
17
22
217
45
23
217
45
23
217
45
23
217
45
23
255
255
255
255
255
255
255
255
255
255
255
255
255
255
255
255
255
255
148
17
22
74
0
5
74
0
5
255
118
10
255
118
10
255
118
10
255
118
10
255
118
10
255
118
10
74
0
5
74
0
5
148
17
22
255
255
255
255
255
255
255
255
255
255
255
255
255
118
10
148
17
22
217
45
23
0
0
0
0
0
0
0
0
0
0
0
0
0
0
0
0
0
0
0
0
0
0
0
0
0
0
0
0
0
0
0
0
0
0
0
0
0
0
0
0
0
0
0
0
0
0
0
0
0
0
0
0
0
0
217
45
23
148
17
22
217
45
23
217
45
23
217
45
23
217
45
23
217
45
23
255
255
255
255
255
255
255
255
255
255
255
255
255
255
255
148
17
22
74
0
5
74
0
5
74
0
5
74
0
5
255
118
10
255
118
10
255
118
10
255
118
10
74
0
5
74
0
5
74
0
5
74
0
5
148
17
22
255
255
255
255
255
255
255
255
255
255
118
10
148
17
22
217
45
23
217
45
23
0
0
0
0
0
0
0
0
0
0
0
0
0
0
0
0
0
0
0
0
0
0
0
0
0
0
0
0
0
0
0
0
0
0
0
0
0
0
0
0
0
0
0
0
0
0
0
0
0
0
0
217
45
23
148
17
22
217
45
23
217
45
23
217
45
23
217
45
23
217
45
23
255
255
255
255
255
255
255
255
255
255
255
255
255
255
255
148
17
22
74
0
5
74
0
5
148
17
22
74
0
5
74
0
5
217
45
23
217
45
23
74
0
5
74
0
5
148
17
22
74
0
5
74
0
5
148
17
22
255
255
255
255
255
255
255
255
255
255
118
10
148
17
22
217
45
23
217
45
23
0
0
0
0
0
0
0
0
0
0
0
0
0
0
0
0
0
0
0
0
0
0
0
0
0
0
0
0
0
0
0
0
0
0
0
0
0
0
0
0
0
0
0
0
0
0
0
0
0
0
0
217
45
23
148
17
22
217
45
23
217
45
23
217
45
23
217
45
23
217
45
23
255
255
255
255
255
255
255
255
255
255
255
255
255
255
255
255
255
255
148
17
22
148
17
22
255
255
255
255
255
255
74
0
5
217
45
23
217
45
23
74
0
5
255
255
255
255
255
255
148
17
22
148
17
22
255
255
255
255
255
255
255
255
255
255
255
255
255
118
10
255
118
10
148
17
22
217
45
23
0
0
0
0
0
0
0
0
0
0
0
0
0
0
0
0
0
0
0
0
0
0
0
0
0
0
0
0
0
0
0
0
0
0
0
0
0
0
0
0
0
0
0
0
0
0
0
0
0
0
0
217
45
23
148
17
22
217
45
23
217
45
23
217
45
23
217
45
23
217
45
23
255
255
255
255
255
255
255
255
255
255
255
255
255
255
255
255
255
255
255
255
255
255
255
255
255
255
255
255
255
255
255
255
255
217
45
23
217
45
23
255
255
255
255
255
255
255
255
255
255
255
255
255
255
255
255
255
255
255
255
255
255
255
255
255
255
255
255
118
10
255
118
10
148
17
22
217
45
23
0
0
0
0
0
0
0
0
0
0
0
0
0
0
0
0
0
0
0
0
0
0
0
0
0
0
0
0
0
0
0
0
0
0
0
0
0
0
0
0
0
0
0
0
0
0
0
0
0
0
0
217
45
23
148
17
22
217
45
23
217
45
23
217
45
23
217
45
23
217
45
23
217
45
23
255
255
255
255
255
255
255
255
255
255
255
255
255
255
255
255
255
255
255
255
255
255
255
255
255
255
255
255
255
255
217
45
23
217
45
23
255
255
255
255
255
255
255
255
255
255
255
255
255
255
255
255
255
255
255
255
255
255
255
255
255
255
255
255
118
10
255
118
10
148
17
22
217
45
23
0
0
0
0
0
0
0
0
0
0
0
0
0
0
0
0
0
0
0
0
0
0
0
0
0
0
0
0
0
0
0
0
0
0
0
0
0
0
0
0
0
0
0
0
0
0
0
0
0
0
0
217
45
23
148
17
22
217
45
23
217
45
23
217
45
23
217
45
23
217
45
23
217
45
23
217
45
23
255
255
255
255
255
255
255
255
255
255
255
255
255
255
255
255
255
255
255
255
255
255
118
10
255
118
10
255
118
10
255
118
10
255
118
10
255
255
255
255
255
255
255
255
255
255
255
255
255
255
255
255
255
255
255
255
255
255
118
10
255
118
10
255
118
10
148
17
22
217
45
23
0
0
0
0
0
0
0
0
0
0
0
0
0
0
0
0
0
0
0
0
0
0
0
0
0
0
0
0
0
0
0
0
0
0
0
0
0
0
0
0
0
0
74
0
5
74
0
5
74
0
5
74
0
5
74
0
5
217
45
23
217
45
23
217
45
23
217
45
23
217
45
23
217
45
23
255
118
10
255
118
10
255
118
10
255
118
10
255
118
10
255
118
10
255
118
10
255
118
10
255
118
10
255
118
10
255
118
10
255
118
10
255
118
10
255
118
10
255
118
10
255
118
10
255
118
10
255
118
10
255
118
10
255
118
10
255
118
10
255
118
10
255
118
10
148
17
22
104
2
6
104
2
6
104
2
6
104
2
6
104
2
6
0
0
0
0
0
0
0
0
0
0
0
0
0
0
0
0
0
0
0
0
0
0
0
0
0
0
0
74
0
5
201
45
51
201
45
51
201
45
51
201
45
51
201
45
51
74
0
5
217
45
23
217
45
23
217
45
23
217
45
23
217
45
23
255
118
10
255
118
10
255
118
10
255
118
10
69
30
51
255
255
255
255
255
255
255
255
255
255
255
255
255
255
255
255
255
255
255
255
255
255
255
255
255
255
255
255
255
255
255
255
255
255
255
255
255
255
255
255
255
255
255
255
255
69
30
51
255
118
10
255
118
10
104
2
6
201
45
51
201
45
51
201
45
51
201
45
51
201
45
51
104
2
6
0
0
0
0
0
0
0
0
0
0
0
0
0
0
0
0
0
0
0
0
0
74
0
5
201
45
51
201
45
51
201
45
51
201
45
51
201
45
51
201
45
51
201
45
51
74
0
5
217
45
23
217
45
23
217
45
23
217
45
23
255
118
10
255
118
10
255
118
10
69
30
51
219
184
193
255
255
255
255
255
255
255
255
255
255
255
255
255
255
255
255
255
255
255
255
255
255
255
255
255
255
255
255
255
255
255
255
255
255
255
255
255
255
255
255
255
255
219
184
193
69
30
51
69
30
51
255
118
10
104
2
6
201
45
51
201
45
51
201
45
51
201
45
51
201
45
51
201
45
51
104
2
6
0
0
0
0
0
0
0
0
0
0
0
0
0
0
0
0
0
0
74
0
5
201
45
51
201
45
51
201
45
51
201
45
51
201
45
51
104
2
6
201
45
51
74
0
5
217
45
23
217
45
23
217
45
23
255
118
10
255
118
10
255
118
10
255
118
10
69
30
51
69
30
51
69
30
51
69
30
51
69
30
51
69
30
51
69
30
51
69
30
51
69
30
51
69
30
51
69
30
51
69
30
51
69
30
51
69
30
51
69
30
51
69
30
51
69
30
51
69
30
51
69
30
51
255
118
10
255
118
10
104
2
6
201
45
51
201
45
51
104
2
6
201
45
51
201
45
51
104
2
6
0
0
0
0
0
0
0
0
0
0
0
0
0
0
0
0
0
0
74
0
5
201
45
51
201
45
51
201
45
51
201
45
51
104
2
6
104
2
6
104
2
6
74
0
5
217
45
23
217
45
23
217
45
23
255
118
10
255
118
10
255
118
10
69
30
51
69
30
51
69
30
51
69
30
51
69
30
51
69
30
51
69
30
51
69
30
51
69
30
51
69
30
51
69
30
51
69
30
51
69
30
51
69
30
51
69
30
51
69
30
51
69
30
51
69
30
51
69
30
51
69
30
51
255
118
10
255
118
10
104
2
6
148
17
22
201
45
51
201
45
51
104
2
6
201
45
51
104
2
6
0
0
0
0
0
0
0
0
0
0
0
0
0
0
0
0
0
0
74
0
5
201
45
51
201
45
51
201
45
51
201
45
51
201
45
51
148
17
22
104
2
6
74
0
5
217
45
23
217
45
23
217
45
23
255
118
10
255
118
10
255
118
10
69
30
51
69
30
51
69
30
51
69
30
51
69
30
51
69
30
51
69
30
51
69
30
51
69
30
51
69
30
51
69
30
51
69
30
51
69
30
51
69
30
51
69
30
51
69
30
51
69
30
51
69
30
51
69
30
51
69
30
51
69
30
51
255
118
10
104
2
6
104
2
6
104
2
6
104
2
6
104
2
6
201
45
51
104
2
6
0
0
0
0
0
0
0
0
0
0
0
0
0
0
0
0
0
0
74
0
5
201
45
51
201
45
51
201
45
51
201
45
51
201
45
51
201
45
51
148
17
22
74
0
5
217
45
23
217
45
23
217
45
23
255
118
10
255
118
10
255
118
10
69
30
51
69
30
51
69
30
51
69
30
51
69
30
51
69
30
51
69
30
51
69
30
51
69
30
51
69
30
51
69
30
51
69
30
51
69
30
51
69
30
51
69
30
51
69
30
51
69
30
51
69
30
51
69
30
51
69
30
51
69
30
51
255
118
10
104
2
6
148
17
22
148
17
22
201
45
51
201
45
51
201
45
51
104
2
6
0
0
0
0
0
0
0
0
0
0
0
0
0
0
0
0
0
0
74
0
5
201
45
51
201
45
51
201
45
51
201
45
51
201
45
51
201
45
51
201
45
51
74
0
5
217
45
23
217
45
23
217
45
23
255
118
10
255
118
10
255
118
10
69
30
51
69
30
51
69
30
51
148
17
22
148
17
22
148
17
22
201
45
51
201
45
51
201
45
51
201
45
51
201
45
51
201
45
51
69
30
51
69
30
51
69
30
51
69
30
51
69
30
51
69
30
51
69
30
51
69
30
51
69
30
51
255
118
10
104
2
6
148
17
22
148
17
22
201
45
51
201
45
51
201
45
51
104
2
6
0
0
0
0
0
0
0
0
0
0
0
0
0
0
0
0
0
0
74
0
5
201
45
51
201
45
51
201
45
51
201
45
51
201
45
51
201
45
51
201
45
51
74
0
5
217
45
23
217
45
23
217
45
23
255
118
10
255
118
10
69
30
51
69
30
51
69
30
51
148
17
22
148
17
22
148
17
22
201
45
51
201
45
51
201
45
51
201
45
51
201
45
51
201
45
51
201
45
51
201
45
51
69
30
51
69
30
51
69
30
51
69
30
51
69
30
51
69
30
51
69
30
51
69
30
51
255
118
10
104
2
6
148
17
22
148
17
22
201
45
51
201
45
51
104
2
6
0
0
0
0
0
0
0
0
0
0
0
0
0
0
0
0
0
0
0
0
0
74
0
5
201
45
51
201
45
51
201
45
51
201
45
51
201
45
51
201
45
51
201
45
51
74
0
5
217
45
23
217
45
23
217
45
23
255
118
10
255
118
10
69
30
51
69
30
51
148
17
22
148
17
22
148
17
22
148
17
22
201
45
51
201
45
51
201
45
51
201
45
51
201
45
51
201
45
51
201
45
51
201
45
51
69
30
51
69
30
51
69
30
51
69
30
51
69
30
51
69
30
51
69
30
51
69
30
51
255
118
10
104
2
6
148
17
22
148
17
22
201
45
51
201
45
51
104
2
6
0
0
0
0
0
0
0
0
0
0
0
0
0
0
0
0
0
0
0
0
0
74
0
5
148
17
22
201
45
51
201
45
51
201
45
51
201
45
51
201
45
51
201
45
51
74
0
5
217
45
23
217
45
23
217
45
23
255
118
10
255
118
10
69
30
51
69
30
51
148
17
22
219
184
193
255
255
255
255
255
255
255
255
255
255
255
255
255
255
255
255
255
255
255
255
255
255
255
255
255
255
255
255
255
255
255
255
255
255
255
255
255
255
255
255
255
255
255
255
255
219
184
193
69
30
51
69
30
51
255
118
10
104
2
6
219
184
193
219
184
193
255
255
255
201
45
51
104
2
6
0
0
0
0
0
0
0
0
0
0
0
0
0
0
0
0
0
0
0
0
0
74
0
5
148
17
22
201
45
51
201
45
51
201
45
51
201
45
51
201
45
51
201
45
51
255
255
255
74
0
5
217
45
23
217
45
23
255
118
10
255
118
10
69
30
51
69
30
51
219
184
193
255
255
255
255
255
255
255
255
255
255
255
255
255
255
255
255
255
255
255
255
255
255
255
255
255
255
255
255
255
255
255
255
255
255
255
255
255
255
255
255
255
255
255
255
255
255
255
255
255
255
255
219
184
193
69
30
51
255
118
10
104
2
6
219
184
193
255
255
255
255
255
255
255
255
255
109
59
81
0
0
0
0
0
0
0
0
0
0
0
0
0
0
0
0
0
0
0
0
0
0
0
0
74
0
5
148
17
22
201
45
51
201
45
51
201
45
51
201
45
51
255
255
255
255
255
255
74
0
5
217
45
23
217
45
23
255
118
10
255
118
10
255
118
10
255
118
10
255
118
10
255
118
10
255
118
10
255
118
10
255
118
10
255
118
10
255
118
10
255
118
10
255
118
10
255
118
10
255
118
10
255
118
10
255
118
10
255
118
10
255
118
10
255
118
10
255
118
10
255
118
10
255
118
10
255
118
10
255
118
10
148
17
22
219
184
193
255
255
255
255
255
255
109
59
81
0
0
0
0
0
0
0
0
0
0
0
0
0
0
0
0
0
0
0
0
0
0
0
0
0
0
0
74
0
5
148
17
22
148
17
22
201
45
51
219
184
193
255
255
255
255
255
255
255
255
255
255
255
255
217
45
23
217
45
23
255
118
10
255
118
10
255
118
10
255
118
10
255
118
10
255
118
10
255
118
10
255
118
10
255
118
10
255
118
10
255
118
10
255
118
10
255
118
10
255
118
10
255
118
10
255
118
10
255
118
10
255
118
10
255
118
10
255
118
10
255
118
10
255
118
10
255
118
10
255
118
10
255
118
10
148
17
22
255
255
255
255
255
255
255
255
255
109
59
81
0
0
0
0
0
0
0
0
0
0
0
0
0
0
0
0
0
0
0
0
0
0
0
0
0
0
0
74
0
5
140
83
106
219
184
193
219
184
193
219
184
193
255
255
255
255
255
255
255
255
255
255
255
255
255
255
255
217
45
23
217
45
23
255
118
10
255
118
10
255
118
10
255
118
10
255
118
10
255
118
10
255
118
10
255
118
10
255
118
10
255
118
10
255
118
10
255
118
10
255
118
10
255
118
10
255
118
10
255
118
10
255
118
10
255
118
10
255
118
10
255
118
10
255
118
10
255
118
10
255
255
255
255
255
255
140
83
106
255
255
255
255
255
255
255
255
255
109
59
81
0
0
0
0
0
0
0
0
0
0
0
0
0
0
0
0
0
0
0
0
0
0
0
0
0
0
0
0
0
0
74
0
5
219
184
193
219
184
193
219
184
193
255
255
255
255
255
255
255
255
255
255
255
255
255
255
255
140
83
106
219
184
193
219
184
193
219
184
193
255
255
255
255
255
255
255
255
255
255
255
255
255
255
255
255
255
255
255
255
255
140
83
106
255
118
10
255
118
10
255
118
10
255
118
10
140
83
106
219
184
193
255
255
255
255
255
255
255
255
255
255
255
255
255
255
255
255
255
255
255
255
255
140
83
106
255
255
255
255
255
255
255
255
255
109
59
81
0
0
0
0
0
0
0
0
0
0
0
0
0
0
0
0
0
0
0
0
0
0
0
0
0
0
0
0
0
0
0
0
0
74
0
5
219
184
193
219
184
193
219
184
193
219
184
193
255
255
255
255
255
255
255
255
255
219
184
193
219
184
193
140
83
106
140
83
106
140
83
106
219
184
193
255
255
255
255
255
255
255
255
255
255
255
255
255
255
255
140
83
106
104
2
6
104
2
6
104
2
6
104
2
6
104
2
6
104
2
6
140
83
106
219
184
193
255
255
255
255
255
255
255
255
255
255
255
255
140
83
106
140
83
106
255
255
255
255
255
255
255
255
255
255
255
255
109
59
81
0
0
0
0
0
0
0
0
0
0
0
0
0
0
0
0
0
0
0
0
0
0
0
0
0
0
0
0
0
0
0
0
0
0
0
0
74
0
5
219
184
193
219
184
193
219
184
193
219
184
193
219
184
193
219
184
193
219
184
193
219
184
193
219
184
193
219
184
193
219
184
193
140
83
106
140
83
106
140
83
106
140
83
106
140
83
106
140
83
106
219
184
193
219
184
193
104
2
6
148
17
22
148
17
22
104
2
6
219
184
193
140
83
106
140
83
106
140
83
106
140
83
106
140
83
106
140
83
106
255
255
255
255
255
255
255
255
255
255
255
255
255
255
255
109
59
81
0
0
0
0
0
0
0
0
0
0
0
0
0
0
0
0
0
0
0
0
0
0
0
0
0
0
0
0
0
0
0
0
0
0
0
0
0
0
0
74
0
5
219
184
193
219
184
193
219
184
193
219
184
193
219
184
193
219
184
193
219
184
193
219
184
193
219
184
193
255
255
255
255
255
255
255
255
255
255
255
255
255
255
255
255
255
255
255
255
255
255
255
255
255
255
255
219
184
193
219
184
193
104
2
6
104
2
6
104
2
6
255
255
255
255
255
255
255
255
255
255
255
255
255
255
255
255
255
255
255
255
255
255
255
255
255
255
255
255
255
255
255
255
255
255
255
255
109
59
81
0
0
0
0
0
0
0
0
0
0
0
0
0
0
0
0
0
0
0
0
0
0
0
0
0
0
0
0
0
0
0
0
0
0
0
0
0
0
0
0
0
0
74
0
5
219
184
193
219
184
193
219
184
193
219
184
193
219
184
193
219
184
193
219
184
193
255
255
255
255
255
255
255
255
255
255
255
255
255
255
255
255
255
255
255
255
255
255
255
255
255
255
255
255
255
255
255
255
255
219
184
193
104
2
6
148
17
22
148
17
22
104
2
6
255
255
255
255
255
255
255
255
255
255
255
255
255
255
255
255
255
255
255
255
255
255
255
255
255
255
255
255
255
255
109
59
81
0
0
0
0
0
0
0
0
0
0
0
0
0
0
0
0
0
0
0
0
0
0
0
0
0
0
0
0
0
0
0
0
0
0
0
0
0
0
0
0
0
0
0
0
0
74
0
5
69
30
51
69
30
51
109
59
81
109
59
81
109
59
81
109
59
81
109
59
81
109
59
81
140
83
106
140
83
106
140
83
106
140
83
106
140
83
106
140
83
106
140
83
106
140
83
106
140
83
106
140
83
106
104
2
6
201
45
51
201
45
51
201
45
51
201
45
51
104
2
6
140
83
106
140
83
106
140
83
106
140
83
106
140
83
106
140
83
106
140
83
106
140
83
106
140
83
106
109
59
81
0
0
0
0
0
0
0
0
0
0
0
0
0
0
0
0
0
0
0
0
0
0
0
0
0
0
0
0
0
0
0
0
0
0
0
0
0
0
0
0
0
0
0
0
0
0
0
0
69
30
51
69
30
51
109
59
81
109
59
81
109
59
81
109
59
81
109
59
81
140
83
106
140
83
106
140
83
106
140
83
106
140
83
106
140
83
106
140
83
106
140
83
106
140
83
106
140
83
106
140
83
106
104
2
6
148
17
22
148
17
22
148
17
22
148
17
22
104
2
6
140
83
106
140
83
106
140
83
106
140
83
106
140
83
106
140
83
106
140
83
106
140
83
106
140
83
106
69
30
51
0
0
0
0
0
0
0
0
0
0
0
0
0
0
0
0
0
0
0
0
0
0
0
0
0
0
0
0
0
0
0
0
0
0
0
0
0
0
0
0
0
0
0
0
0
0
0
0
69
30
51
69
30
51
109
59
81
109
59
81
109
59
81
109
59
81
140
83
106
140
83
106
140
83
106
140
83
106
140
83
106
140
83
106
140
83
106
140
83
106
140
83
106
140
83
106
140
83
106
140
83
106
109
59
81
104
2
6
148
17
22
148
17
22
104
2
6
140
83
106
140
83
106
140
83
106
140
83
106
140
83
106
140
83
106
140
83
106
140
83
106
140
83
106
140
83
106
69
30
51
0
0
0
0
0
0
0
0
0
0
0
0
0
0
0
0
0
0
0
0
0
0
0
0
0
0
0
0
0
0
0
0
0
0
0
0
0
0
0
0
0
0
0
0
0
0
0
0
69
30
51
109
59
81
109
59
81
109
59
81
109
59
81
109
59
81
140
83
106
140
83
106
140
83
106
140
83
106
140
83
106
140
83
106
140
83
106
140
83
106
140
83
106
140
83
106
140
83
106
140
83
106
140
83
106
109
59
81
104
2
6
104
2
6
140
83
106
140
83
106
140
83
106
140
83
106
140
83
106
140
83
106
140
83
106
140
83
106
140
83
106
140
83
106
140
83
106
69
30
51
0
0
0
0
0
0
0
0
0
0
0
0
0
0
0
0
0
0
0
0
0
0
0
0
0
0
0
0
0
0
0
0
0
0
0
0
0
0
0
0
0
0
0
0
0
0
0
0
69
30
51
109
59
81
109
59
81
109
59
81
109
59
81
109
59
81
140
83
106
140
83
106
140
83
106
140
83
106
140
83
106
140
83
106
140
83
106
140
83
106
140
83
106
140
83
106
140
83
106
140
83
106
140
83
106
140
83
106
109
59
81
109
59
81
140
83
106
140
83
106
140
83
106
140
83
106
140
83
106
140
83
106
140
83
106
140
83
106
140
83
106
140
83
106
140
83
106
69
30
51
0
0
0
0
0
0
0
0
0
0
0
0
0
0
0
0
0
0
0
0
0
0
0
0
0
0
0
0
0
0
0
0
0
0
0
0
0
0
0
0
0
0
0
0
0
0
0
0
69
30
51
109
59
81
109
59
81
109
59
81
109
59
81
109
59
81
140
83
106
140
83
106
140
83
106
140
83
106
140
83
106
140
83
106
140
83
106
140
83
106
140
83
106
140
83
106
140
83
106
140
83
106
109
59
81
69
30
51
69
30
51
69
30
51
69
30
51
69
30
51
140
83
106
140
83
106
140
83
106
140
83
106
140
83
106
140
83
106
140
83
106
140
83
106
140
83
106
69
30
51
0
0
0
0
0
0
0
0
0
0
0
0
0
0
0
0
0
0
0
0
0
0
0
0
0
0
0
0
0
0
0
0
0
0
0
0
0
0
0
0
0
0
0
0
0
0
0
0
69
30
51
69
30
51
69
30
51
69
30
51
69
30
51
69
30
51
109
59
81
109
59
81
109
59
81
109
59
81
109
59
81
109
59
81
109
59
81
109
59
81
109
59
81
109
59
81
109
59
81
109
59
81
69
30
51
69
30
51
109
59
81
109
59
81
109
59
81
109
59
81
109
59
81
109
59
81
109
59
81
109
59
81
109
59
81
109
59
81
109
59
81
109
59
81
109
59
81
69
30
51
0
0
0
0
0
0
0
0
0
0
0
0
0
0
0
0
0
0
0
0
0
0
0
0
0
0
0
0
0
0
0
0
0
0
0
0
0
0
0
0
0
0
0
0
0
0
0
0
69
30
51
109
59
81
109
59
81
109
59
81
109
59
81
109
59
81
140
83
106
140
83
106
140
83
106
140
83
106
140
83
106
140
83
106
140
83
106
140
83
106
140
83
106
140
83
106
109
59
81
69
30
51
69
30
51
69
30
51
109
59
81
109
59
81
109
59
81
140
83
106
140
83
106
140
83
106
140
83
106
140
83
106
140
83
106
140
83
106
140
83
106
140
83
106
140
83
106
69
30
51
0
0
0
0
0
0
0
0
0
0
0
0
0
0
0
0
0
0
0
0
0
0
0
0
0
0
0
0
0
0
0
0
0
0
0
0
0
0
0
0
0
0
0
0
0
0
0
0
69
30
51
109
59
81
109
59
81
109
59
81
109
59
81
140
83
106
140
83
106
140
83
106
140
83
106
140
83
106
140
83
106
140
83
106
140
83
106
140
83
106
140
83
106
140
83
106
69
30
51
69
30
51
69
30
51
69
30
51
109
59
81
109
59
81
140
83
106
140
83
106
140
83
106
140
83
106
140
83
106
140
83
106
140
83
106
140
83
106
140
83
106
140
83
106
140
83
106
69
30
51
0
0
0
0
0
0
0
0
0
0
0
0
0
0
0
0
0
0
0
0
0
0
0
0
0
0
0
0
0
0
0
0
0
0
0
0
0
0
0
0
0
0
0
0
0
0
0
0
69
30
51
69
30
51
69
30
51
69
30
51
69
30
51
69
30
51
69
30
51
69
30
51
69
30
51
69
30
51
69
30
51
69
30
51
69
30
51
69
30
51
69
30
51
69
30
51
69
30
51
0
0
0
0
0
0
69
30
51
69
30
51
69
30
51
69
30
51
69
30
51
69
30
51
69
30
51
69
30
51
69
30
51
69
30
51
69
30
51
69
30
51
69
30
51
69
30
51
69
30
51
0
0
0
0
0
0
0
0
0
0
0
0
0
0
0
0
0
0
0
0
0
0
0
0
0
0
0
0
0
0
0
0
0
0
0
0
0
0
0
0
0
0
0
0
0
0
0
0
69
30
51
69
30
51
69
30
51
69
30
51
69
30
51
69
30
51
69
30
51
69
30
51
69
30
51
69
30
51
69
30
51
69
30
51
69
30
51
69
30
51
69
30
51
69
30
51
69
30
51
0
0
0
0
0
0
69
30
51
69
30
51
69
30
51
69
30
51
69
30
51
69
30
51
69
30
51
69
30
51
69
30
51
69
30
51
69
30
51
69
30
51
69
30
51
69
30
51
69
30
51
69
30
51
0
0
0
0
0
0
0
0
0
0
0
0
0
0
0
0
0
0
