P3
40 34
255
255
255
255
255
255
255
255
255
255
255
255
255
255
255
255
255
255
255
255
255
255
255
255
255
255
255
255
255
255
255
255
255
255
255
255
255
255
255
255
255
255
255
255
255
255
255
255
255
255
255
255
252
255
254
255
255
255
254
255
255
255
255
255
255
255
255
255
255
255
255
255
255
255
255
255
255
255
255
255
255
255
255
255
255
255
255
255
255
255
255
255
255
255
255
255
255
255
255
255
255
255
255
255
255
255
255
255
255
255
255
255
255
255
255
255
255
255
255
255
255
255
255
255
255
255
255
255
255
255
255
255
255
255
255
255
255
255
255
255
255
255
255
255
255
255
255
255
255
255
255
255
255
255
255
255
255
255
255
255
255
255
255
244
221
230
221
113
152
210
64
118
216
105
146
228
190
204
223
167
188
227
180
197
239
211
222
248
241
244
255
255
255
255
255
255
255
255
255
255
255
255
255
255
255
255
255
255
255
255
255
254
254
254
255
255
255
255
255
255
255
255
255
255
255
255
255
255
255
255
255
255
255
255
255
255
255
255
255
255
255
255
255
255
255
255
255
255
255
255
255
255
255
255
255
255
255
255
255
255
255
255
255
255
255
255
255
255
255
255
255
255
255
255
255
255
255
235
209
219
188
17
79
211
2
78
215
11
86
216
19
91
217
35
102
219
47
110
214
30
98
215
36
103
223
69
125
232
104
151
218
147
173
232
185
203
238
226
231
254
255
255
255
255
255
255
255
255
255
255
255
255
255
255
255
255
255
255
255
255
255
255
255
255
255
255
255
255
255
255
255
255
255
255
255
255
255
255
255
255
255
255
255
255
255
255
255
255
255
255
255
255
255
255
255
255
255
255
255
255
255
255
255
255
255
255
255
255
255
255
255
255
255
255
186
99
131
180
2
67
212
4
81
213
5
82
211
4
80
168
1
62
135
0
49
120
0
42
94
0
32
81
0
27
87
0
31
133
3
50
200
21
86
224
56
118
230
116
158
224
155
180
249
246
248
255
255
255
255
255
255
255
255
255
255
255
255
255
255
255
255
255
255
255
255
255
255
255
255
255
255
255
255
255
255
254
254
254
255
255
255
255
255
255
255
255
255
255
255
255
255
255
255
255
255
255
255
255
255
255
255
255
255
255
255
255
255
255
254
255
255
162
33
79
193
0
71
211
4
80
195
4
74
181
0
66
178
0
63
238
222
228
240
232
235
252
251
251
255
255
255
253
253
253
240
236
238
199
185
190
76
23
42
95
0
33
187
11
75
225
56
117
233
133
169
238
217
225
255
255
255
255
255
255
255
255
255
255
255
255
255
255
255
255
255
255
255
255
255
255
255
255
255
255
255
255
255
255
255
255
255
255
255
255
255
255
255
255
255
255
255
255
255
255
255
255
255
255
255
255
255
255
255
255
255
241
233
236
142
9
57
196
3
74
212
6
81
208
1
76
204
124
154
209
169
184
254
255
255
255
255
255
255
255
255
255
255
255
255
255
255
255
255
255
255
255
255
255
255
255
255
255
255
190
175
181
64
4
26
146
1
54
217
31
99
233
128
167
242
223
230
255
255
255
255
255
255
255
255
255
255
255
255
255
255
255
255
255
255
255
255
255
255
255
255
255
255
255
255
255
255
255
255
255
255
255
255
255
255
255
255
255
255
255
255
255
255
255
255
255
255
255
255
255
255
115
44
70
183
3
69
209
2
78
185
24
83
213
135
163
255
255
255
255
255
255
255
255
255
255
255
255
255
255
255
255
255
255
255
255
255
255
255
255
255
255
255
255
255
255
255
255
255
255
255
255
247
246
246
66
17
35
152
1
57
219
38
104
234
150
181
250
249
249
255
255
255
255
255
255
255
255
255
255
255
255
255
255
255
255
255
255
255
255
255
255
255
255
255
255
255
255
255
255
255
255
255
255
255
255
255
255
255
255
255
255
255
254
254
249
244
246
221
209
213
126
1
47
215
15
89
215
89
135
255
255
255
255
255
255
255
255
255
255
255
255
255
255
255
255
255
255
255
255
255
255
255
255
255
255
255
255
255
255
255
255
255
255
255
255
255
255
255
255
255
255
255
255
255
250
250
249
61
4
25
186
1
68
228
80
134
235
192
208
255
255
255
255
255
255
255
255
255
255
255
255
255
255
255
255
255
255
255
255
255
255
255
255
255
255
255
255
255
255
255
255
255
255
255
255
255
255
255
255
255
255
242
233
236
255
255
255
140
58
89
205
11
82
217
89
136
255
255
255
255
255
255
255
255
255
255
255
255
255
255
255
255
255
255
255
255
255
255
255
255
255
255
255
255
255
255
255
255
255
255
255
255
255
255
255
255
255
255
255
255
255
255
255
255
255
255
255
150
124
133
139
0
49
220
67
124
220
128
162
255
255
255
255
255
255
255
255
255
255
255
255
255
255
255
255
255
255
255
255
255
255
255
255
255
255
255
255
255
255
255
255
255
254
254
254
255
255
255
255
255
255
255
255
255
162
115
133
187
13
77
219
73
126
254
253
254
255
255
255
255
255
255
255
255
255
255
255
255
255
255
255
255
255
255
255
255
255
255
255
255
255
255
255
253
254
253
249
247
247
254
255
255
255
255
255
255
255
255
255
255
255
255
255
255
255
255
255
255
255
255
111
0
39
223
144
172
249
244
246
255
255
255
255
255
255
255
255
255
255
255
255
255
255
255
255
255
255
255
255
255
255
255
255
255
255
255
255
255
255
255
255
255
255
255
255
255
255
255
255
255
255
230
221
225
92
0
28
226
59
120
238
227
231
255
255
255
255
255
255
255
255
255
255
255
255
255
255
255
255
255
255
255
255
255
255
255
255
202
103
140
212
19
89
235
162
189
248
227
235
246
228
235
210
155
175
251
251
251
255
255
255
255
255
255
255
255
255
255
255
255
87
23
46
234
99
148
237
230
233
252
251
251
255
255
255
255
255
255
255
255
255
255
255
255
255
255
255
255
255
255
255
255
255
255
255
255
255
255
255
255
255
255
255
255
255
255
255
255
255
255
255
176
159
166
141
0
51
226
85
137
255
255
255
255
255
255
255
255
255
255
255
255
255
255
255
255
255
255
255
255
255
255
255
255
212
139
166
210
134
162
253
250
251
255
255
255
255
255
255
255
255
255
255
255
255
244
239
241
255
255
255
255
255
255
255
255
255
255
255
255
87
40
58
219
79
129
243
241
242
244
241
243
255
255
255
255
255
255
255
255
255
255
255
255
255
255
255
255
255
255
255
255
255
255
255
255
255
255
255
255
255
255
255
255
255
255
255
255
255
255
255
113
78
91
196
28
89
231
180
199
255
255
255
255
255
255
255
255
255
255
255
255
255
255
255
255
255
255
255
255
255
241
220
227
226
153
179
255
255
255
255
255
255
255
255
255
255
255
255
255
255
255
255
255
255
255
255
255
255
255
255
255
255
255
255
255
255
255
255
255
91
52
67
213
69
122
241
227
232
255
255
255
255
255
255
255
255
255
255
255
255
255
255
255
255
255
255
255
255
255
255
255
255
255
255
255
255
255
255
255
255
255
255
255
255
255
255
255
255
255
255
116
76
90
216
54
113
246
250
249
255
255
255
255
255
255
255
255
255
255
255
255
255
255
255
255
255
255
255
255
255
213
95
139
249
243
246
255
255
255
255
255
255
255
255
255
255
255
255
255
255
255
255
255
255
255
255
255
251
246
248
255
255
255
255
255
255
255
255
255
97
61
73
201
52
107
232
185
202
255
255
255
255
255
255
255
255
255
255
255
255
255
255
255
255
255
255
255
255
255
255
255
255
255
255
255
255
255
255
255
255
255
255
255
255
255
255
255
255
255
255
116
68
85
220
69
124
255
255
255
255
255
255
254
254
254
255
255
255
255
255
255
254
254
254
255
255
255
254
252
253
198
42
99
255
255
255
255
255
255
255
255
255
255
255
255
255
255
255
255
255
255
255
255
255
255
255
255
240
224
230
255
255
255
255
255
255
255
255
255
99
59
73
208
45
105
239
231
235
255
255
255
255
255
255
255
255
255
255
255
255
255
255
255
255
255
255
255
255
255
255
255
255
255
255
255
255
255
255
255
255
255
255
255
255
255
255
255
255
255
255
116
57
78
227
89
140
255
255
255
255
255
255
255
255
255
255
255
255
255
255
255
255
255
255
255
255
255
253
251
251
206
51
108
251
253
252
255
255
255
255
255
255
255
255
255
255
255
255
255
255
255
255
255
255
255
255
255
255
255
255
255
255
255
255
255
255
255
255
255
122
59
82
220
96
142
249
251
251
255
255
255
255
255
255
255
255
255
255
255
255
255
255
255
255
255
255
255
255
255
255
255
255
255
255
255
255
255
255
255
255
255
255
255
255
255
255
255
255
255
255
131
62
87
232
115
158
255
255
255
255
255
255
255
255
255
255
255
255
255
255
255
255
255
255
255
255
255
251
250
250
198
34
94
250
244
246
255
255
255
255
255
255
255
255
255
255
255
255
255
255
255
255
255
255
235
213
222
245
240
242
255
255
255
255
255
255
255
255
255
163
15
69
229
135
169
246
245
246
255
255
255
255
255
255
255
255
255
255
255
255
255
255
255
255
255
255
255
255
255
255
255
255
255
255
255
255
255
255
255
255
255
255
255
255
255
255
255
255
255
255
139
60
89
237
143
178
255
255
255
255
255
255
255
255
255
255
255
255
255
255
255
255
255
255
255
255
255
252
251
251
158
11
65
249
234
240
255
255
255
255
255
255
255
255
255
255
255
255
255
255
255
255
255
255
246
238
241
255
255
255
255
255
255
255
255
255
129
41
73
200
20
86
254
255
255
244
240
241
255
255
255
255
255
255
255
255
255
255
255
255
255
255
255
255
255
255
255
255
255
254
254
254
255
255
255
255
255
255
255
255
255
254
254
254
255
255
255
255
255
255
129
60
85
235
130
168
255
255
255
255
255
255
255
255
255
255
255
255
255
255
255
255
255
255
255
255
255
255
255
255
157
94
117
229
180
198
255
255
255
255
255
255
255
255
255
243
235
238
228
179
196
254
254
254
255
255
255
255
255
255
255
255
255
227
199
209
199
7
77
240
222
229
250
249
249
255
255
255
255
255
255
255
255
255
255
255
255
255
255
255
255
255
255
255
255
255
255
255
255
255
255
255
254
254
254
255
255
255
255
255
255
255
255
255
255
255
255
255
255
255
108
63
79
227
82
136
242
237
239
255
255
255
255
255
255
255
255
255
255
255
255
255
255
255
255
255
255
253
252
252
207
199
202
218
125
159
244
236
239
255
255
255
255
255
255
255
255
255
255
255
255
255
255
255
255
255
255
249
247
248
233
178
198
195
0
65
233
171
194
254
253
253
255
255
255
255
255
255
255
255
255
255
255
255
255
255
255
255
255
255
255
255
255
255
255
255
255
255
255
255
255
255
255
255
255
255
255
255
255
255
255
255
255
255
255
255
255
255
255
255
106
71
84
209
58
113
236
217
224
255
255
255
255
255
255
255
255
255
255
255
255
255
255
255
255
255
255
255
255
255
232
228
229
175
153
161
219
173
190
239
224
229
253
254
254
255
255
255
254
255
255
250
236
241
233
190
205
210
37
101
216
23
93
241
209
220
255
255
255
255
255
255
255
255
255
255
255
255
255
255
255
255
255
255
255
255
255
255
255
255
255
255
255
255
255
255
255
255
255
255
255
255
255
255
255
255
255
255
255
255
255
255
255
255
255
255
255
255
255
255
115
84
95
182
38
90
233
184
202
255
254
255
255
255
255
255
255
255
255
255
255
255
255
255
255
255
255
255
255
255
255
255
255
255
255
255
133
59
85
178
100
129
227
137
170
207
81
127
195
8
76
196
4
74
187
4
71
197
71
117
255
255
255
255
255
255
255
255
255
255
255
255
255
255
255
255
255
255
255
255
255
255
255
255
255
255
255
255
255
255
255
255
255
255
255
255
255
255
255
255
255
255
255
255
255
255
255
255
255
255
255
255
255
255
255
255
255
255
255
255
137
111
120
138
10
57
229
117
158
239
168
194
254
253
253
255
255
255
255
255
255
255
255
255
255
255
255
255
255
255
255
255
255
255
255
255
255
255
255
236
224
228
167
96
122
133
37
72
167
92
119
224
205
212
251
247
248
255
255
255
255
255
255
255
255
255
255
255
255
255
255
255
255
255
255
255
255
255
255
255
255
255
255
255
255
255
255
255
255
255
255
255
255
255
255
255
255
255
255
255
255
255
254
254
254
255
255
255
255
255
255
255
255
255
255
255
255
255
255
255
193
177
183
83
0
26
219
24
95
234
129
168
243
233
237
255
255
255
255
255
255
255
255
255
228
228
228
60
59
59
242
242
242
255
255
255
255
255
255
255
255
255
248
250
250
78
79
78
241
242
242
255
255
255
255
255
255
251
251
251
66
65
65
255
255
255
255
255
255
255
255
255
255
255
255
255
255
255
255
255
255
255
255
255
255
255
255
255
255
255
255
255
255
255
255
255
255
255
255
254
254
254
255
255
255
255
255
255
255
255
255
255
255
255
255
255
255
255
255
255
255
255
255
57
0
20
182
5
70
229
99
147
239
219
226
255
255
255
255
255
255
255
255
255
255
255
255
113
112
112
239
239
239
255
255
255
255
255
255
255
255
255
255
255
255
147
146
146
235
235
235
255
255
255
255
255
255
255
255
255
176
176
176
255
255
255
255
255
255
255
255
255
255
255
255
255
255
255
255
255
255
255
255
255
255
255
255
255
255
255
255
255
255
255
255
255
255
255
255
255
255
255
255
255
255
255
255
255
255
255
255
255
255
255
255
255
255
255
255
255
255
255
255
158
135
143
102
0
37
222
48
112
231
172
194
255
255
255
255
255
255
173
172
172
155
155
155
60
59
59
239
239
239
249
249
249
147
147
147
139
138
138
242
242
242
143
142
142
173
173
173
109
108
108
205
205
205
217
216
216
108
107
107
255
255
255
171
171
171
153
152
152
153
152
152
255
255
255
129
128
128
183
182
182
112
111
111
198
198
198
255
255
255
255
255
255
255
255
255
255
255
255
255
255
255
255
255
255
255
255
255
255
255
255
255
255
255
255
255
255
255
255
255
253
252
252
58
3
23
171
6
67
235
131
170
247
240
243
208
209
209
77
75
75
255
255
255
111
110
110
239
239
239
69
67
67
200
199
199
186
185
185
71
69
69
143
142
142
242
242
242
255
255
255
29
28
28
255
255
255
28
27
27
255
255
255
72
70
70
247
247
247
52
51
51
255
255
255
175
174
174
211
211
211
255
255
255
74
73
73
255
255
255
255
255
255
255
255
255
255
255
255
255
255
255
255
255
255
255
255
255
255
255
255
255
255
255
255
255
255
255
255
255
255
255
255
224
216
219
63
0
22
210
35
100
232
154
183
157
156
156
117
115
115
255
255
255
108
107
107
241
241
241
38
36
36
233
233
233
255
255
255
255
255
255
143
142
142
234
234
234
255
255
255
39
37
37
255
255
255
28
26
26
255
255
255
103
102
102
180
180
180
64
62
62
255
255
255
169
168
168
216
216
216
255
255
255
76
75
75
255
255
255
255
255
255
255
255
255
255
255
255
255
255
255
255
255
255
255
255
255
255
255
255
255
255
255
255
255
255
255
255
255
255
255
255
255
255
255
183
164
171
79
0
28
218
63
120
227
178
195
33
33
32
255
255
255
62
61
61
239
239
239
140
139
139
127
126
126
255
255
255
108
106
106
137
136
136
204
204
204
255
255
255
78
77
77
255
255
255
20
18
18
255
255
255
12
10
10
255
255
255
23
22
22
255
255
255
169
167
167
213
212
212
255
255
255
70
69
69
255
255
255
255
255
255
255
255
255
255
255
255
255
255
255
255
255
255
255
255
255
254
254
254
255
255
255
255
255
255
255
255
255
255
255
255
255
255
255
255
255
255
161
137
146
81
0
25
222
69
125
211
154
174
204
208
206
229
228
228
216
216
216
255
255
255
211
211
211
207
206
206
255
255
255
219
219
219
214
213
213
210
209
209
251
251
251
244
244
244
214
213
213
239
239
239
216
216
216
211
210
210
226
226
226
224
223
223
214
214
214
215
215
215
227
227
227
212
211
211
246
246
246
255
255
255
255
255
255
255
255
255
255
255
255
255
255
255
255
255
255
255
255
255
255
255
255
255
255
255
255
255
255
255
255
255
255
255
255
255
255
255
255
255
255
186
169
175
70
0
22
181
36
89
235
156
185
253
255
255
255
255
255
255
255
255
255
255
255
255
255
255
255
255
255
255
255
255
255
255
255
255
255
255
255
255
255
255
255
255
255
255
255
255
255
255
255
255
255
255
255
255
255
255
255
255
255
255
254
254
254
255
255
255
255
255
255
255
255
255
255
255
255
255
255
255
255
255
255
255
255
255
254
254
254
255
255
255
255
255
255
255
255
255
255
255
255
254
254
254
255
255
255
255
255
255
255
255
255
255
255
255
255
255
255
255
255
255
246
244
245
130
100
111
136
16
60
201
73
120
234
191
207
254
255
255
255
255
255
255
255
255
255
255
255
255
255
255
255
255
255
255
255
255
255
255
255
255
255
255
255
255
255
255
255
255
255
255
255
255
255
255
255
255
255
255
255
255
255
255
255
255
255
255
255
255
255
255
255
255
255
255
255
255
255
255
255
255
255
255
255
255
255
255
255
255
255
255
255
255
255
255
255
255
255
255
255
255
255
255
255
255
255
255
255
255
255
255
255
255
255
255
255
255
255
255
255
255
255
255
255
255
255
255
255
255
255
193
174
180
180
51
99
211
128
158
245
225
233
251
250
250
255
255
255
255
255
255
255
255
255
255
255
255
255
255
255
255
255
255
255
255
255
255
255
255
255
255
255
255
255
255
255
255
255
255
255
255
255
255
255
255
255
255
255
255
255
255
255
255
255
255
255
255
255
255
255
255
255
255
255
255
255
255
255
255
255
255
255
255
255
255
255
255
255
255
255
255
255
255
255
255
255
255
255
255
255
255
255
255
255
255
255
255
255
255
255
255
255
255
255
255
255
255
255
255
255
255
255
255
255
255
255
255
255
255
246
214
226
236
172
195
222
191
203
255
255
255
255
255
255
255
255
255
255
255
255
255
255
255
255
255
255
255
255
255
255
255
255
254
254
254
255
255
255
255
255
255
254
254
254
255
255
255
255
255
255
255
255
255
255
255
255
255
255
255
255
255
255
255
255
255
255
255
255
